<svg height="512" id="Layer_1" version="1.1" viewBox="0 0 449.4 449.4" width="512" x="0" xml:space="preserve" xmlns="http://www.w3.org/2000/svg" y="0">
  <path d="M112.8 317.1c17.6-17.6 3-36.1-2-46.4-30-56-27.1-119.6 22-168.3 64.3-64.6 186.7-83 251-18.7s45.9 186.7-18.4 251c-49 49-112.7 52-168.7 22-10.2-5-28.8-19.4-46.4-2L112.8 317z" fill="#ff6361"/>
  <path d="M293.6 373.9l-200-200c-6 32.2 1.2 65.7 17.2 96.9 5 10.2 19.6 28.7 2 46.3l37.5 37.5c17.6-17.3 36.2-3 46.4 2a147.3 147.3 0 0 0 96.9 17.3z" fill="#7c5c5b"/>
  <path d="M174.2 254.3L32.7 385.5a21.4 21.4 0 0 0-.4 31.4l18.2 18.5c8.9 8.9 23 8.6 31.5-.6L213 293.4l-38.9-39z" fill="#a77f73"/>
  <circle cx="140.8" cy="75" r="67.5" fill="#e8e8e8"/>
  <g>
    <path d="M110.2 96.4a8.1 8.1 0 0 1-6.8-3.8c-1.8-4.4 0-8.8 4.5-9.8l60.4-28.5c4-1.7 8.2 0 9.9 4.4 1.7 3.1 0 7.6-3.7 9.3l-61.2 27.7c-1 .5-2 .7-3.1.7z" fill="#5c6670"/>
    <path d="M133.5 113a7.5 7.5 0 0 1-3-14.4l33.4-15.2c3.8-1.7 8.2 0 10 3.7 1.6 3.8 0 8.2-3 10.4l-34.3 14.7c-1 .5-2 .7-3 .7z" fill="#5c6670"/>
    <path d="M424.3 138.9c-7-23-18.8-44.2-34.4-60.5-23-22.2-53-36.2-87.7-40.7-29.7-3.8-61.3-.5-91.8 9.4a75 75 0 1 0-112.1 89.7A142 142 0 0 0 84 202.1a162.9 162.9 0 0 0 22.7 76.8c3.5 6.2 7.7 13.9 7 21.2l-86 79.9c-6 5.5-9.4 12.9-8.7 21-1 8 2 15.5 7.7 21.3l18.5 18.4a29 29 0 0 0 42.3-.8l79.8-86.1c7.4-.2 15 3.5 21.3 7 1.6 1 3.2 1.8 4.6 2.5a161.4 161.4 0 0 0 76.2 20.3c37.2 0 72.5-14.8 101.3-43.6 33-32.4 54.7-80.4 59.6-130 2.4-25.2.4-49.1-6-71.1zM80.7 75.4a60 60 0 1 1 120.1 0c0 33.4-27 60.3-60 60.3-33.1 0-60-27.6-60-60.3zM100 190.2l63.3 64-36 33.5c-2-6.3-5-11.8-7.4-16.1-.9-1-.9-3-2.3-4.2l-.1-.2a135.6 135.6 0 0 1-17.5-77zM76.4 429.7a14.2 14.2 0 0 1-20.6.4l-18.5-18.5a11.2 11.2 0 0 1-3.3-10.4c-.8-3.9.8-7.5 3.8-10.2l136-126.2 28.9 28.8-126.3 136zm124-79.6c-.1.6-.2 0 0-.1-1.5-.6-3-1.4-4.5-2.3-4.3-2.4-9.3-5.5-16-7.3l33.4-36.2 64.1 64.1a145 145 0 0 1-77-18.2zm215-141.7a201.2 201.2 0 0 1-55.3 121c-19 19-40.5 31.2-63.9 36.3L101.7 171.4c2.1-8.8 5.6-18.5 9.7-26.7 9 3.2 19 6 29.4 6a75.6 75.6 0 0 0 73.8-89.2c28.5-9.3 58-11.9 85.7-8.9 31.4 4 58.4 16.6 78.2 36.4 28.7 28.5 42.5 71 36.8 119.4z"/>
  </g>
</svg>
